<mxfile host="app.diagrams.net" modified="2020-09-22T00:24:55.272Z" agent="5.0 (Windows)" etag="NjU-DMQH7Svto0kb9WKg" version="13.7.3" type="github">
  <diagram id="MEV_1ULNUNlcin4aDJSM" name="Page-1">
    <mxGraphModel dx="853" dy="761" grid="1" gridSize="10" guides="1" tooltips="1" connect="1" arrows="1" fold="1" page="1" pageScale="1" pageWidth="827" pageHeight="1169" math="0" shadow="0">
      <root>
        <mxCell id="0" />
        <mxCell id="1" parent="0" />
        <mxCell id="KsbxaBQ5GQsEjxH5BDhd-1" value="&lt;div&gt;Recepcionista&lt;/div&gt;" style="shape=umlActor;verticalLabelPosition=bottom;verticalAlign=top;html=1;outlineConnect=0;" vertex="1" parent="1">
          <mxGeometry x="100" y="100" width="50" height="100" as="geometry" />
        </mxCell>
      </root>
    </mxGraphModel>
  </diagram>
</mxfile>
